HIERARCHY
ROOT Hips
{
	OFFSET 0.000000 0.000000 0.000000
	CHANNELS 6 Xposition Yposition Zposition Zrotation Yrotation Xrotation 
	JOINT LHipJoint
	{
		OFFSET 0.000000 0.000000 0.000000
		CHANNELS 3 Zrotation Yrotation Xrotation
		JOINT LeftUpLeg
		{
			OFFSET 1.363060 -1.794630 0.839290
			CHANNELS 3 Zrotation Yrotation Xrotation
			JOINT LeftLeg
			{
				OFFSET 2.448110 -6.726130 0.000000
				CHANNELS 3 Zrotation Yrotation Xrotation
				JOINT LeftFoot
				{
					OFFSET 2.562200 -7.039590 0.000000
					CHANNELS 3 Zrotation Yrotation Xrotation
					JOINT LeftToeBase
					{
						OFFSET 0.157640 -0.433110 2.322550
						CHANNELS 3 Zrotation Yrotation Xrotation
						End Site
						{
							OFFSET 0.000000 0.000000 0.000000
						}
					}
				}
			}
		}
	}
	JOINT RHipJoint
	{
		OFFSET 0.000000 0.000000 0.000000
		CHANNELS 3 Zrotation Yrotation Xrotation
		JOINT RightUpLeg
		{
			OFFSET -1.305520 -1.794630 0.839290
			CHANNELS 3 Zrotation Yrotation Xrotation
			JOINT RightLeg
			{
				OFFSET -2.542530 -6.985550 0.000000
				CHANNELS 3 Zrotation Yrotation Xrotation
				JOINT RightFoot
				{
					OFFSET -2.568260 -7.056230 0.000000
					CHANNELS 3 Zrotation Yrotation Xrotation
					JOINT RightToeBase
					{
						OFFSET -0.164730 -0.452590 2.363150
						CHANNELS 3 Zrotation Yrotation Xrotation
						End Site
						{
							OFFSET 0.000000 0.000000 0.000000
						}
					}
				}
			}
		}
	}
}
MOTION
Frames: 17
Frame Time: 0.008333
5.775614 17.606517 1.553322 2.049970 81.229224 21.216624 -10.246301 0.754715 -2.036366 -8.770838 4.559510 -14.504926 -2.173304 0.011984 13.544510 0.519886 3.115729 -1.521514 0.409200 -0.000000 -44.824200 9.971549 0.607944 -1.883412 5.069367 -1.322226 -36.568840 0.913046 -3.171981 40.654053 -1.126605 -4.590146 -0.547043 -0.863700 -0.000000 -34.849100
5.931719 17.604917 1.581243 1.511065 81.105416 20.712042 -10.294966 0.806830 -2.122489 -8.592463 4.962019 -13.801952 -2.174423 0.011045 13.223166 0.490237 2.928048 -1.316582 0.400700 0.000000 -45.791000 9.855451 0.640896 -1.649149 5.006746 -0.860673 -36.756337 1.083626 -2.961127 38.042458 -1.080395 -4.335693 -0.468216 -0.866701 0.000000 -34.507600
6.088774 17.599206 1.611094 1.093155 80.979823 20.350522 -10.338664 0.860128 -2.207429 -8.433416 5.360077 -13.142036 -2.177983 0.010804 12.944076 0.462670 2.747315 -1.138323 0.390500 0.000000 -46.619200 9.746484 0.668708 -1.397353 4.915472 -0.401112 -36.929643 1.249027 -2.731772 35.306071 -1.026931 -4.068607 -0.230226 -0.879600 0.000000 -34.159200
6.246885 17.589630 1.642789 0.814491 80.857373 20.151534 -10.377283 0.915546 -2.289647 -8.297132 5.752099 -12.528611 -2.184421 0.011175 12.707779 0.436548 2.570459 -0.981643 0.378699 0.000000 -47.316600 9.646641 0.692318 -1.128940 4.793256 0.042109 -37.097675 1.410119 -2.483779 32.457867 -0.964331 -3.781505 0.136595 -0.897000 0.000001 -33.822501
6.405726 17.576572 1.676163 0.694257 80.734090 20.119596 -10.408563 0.973206 -2.373050 -8.187059 6.128676 -11.918684 -2.192404 0.010952 12.476555 0.413252 2.415157 -0.826191 0.368800 -0.000001 -47.957600 9.558643 0.714916 -0.851764 4.633094 0.460076 -37.242665 1.567525 -2.217623 29.510961 -0.890977 -3.465041 0.591456 -0.911700 0.000000 -33.544201
6.565807 17.560350 1.711384 0.744873 80.621599 20.285224 -10.433685 1.034115 -2.451397 -8.106277 6.493701 -11.359749 -2.204091 0.010937 12.285969 0.390485 2.259447 -0.685753 0.357700 0.000000 -48.546900 9.482573 0.737955 -0.560480 4.438935 0.840312 -37.402470 1.723041 -1.932428 26.489945 -0.806831 -3.113992 1.075860 -0.917000 -0.000000 -33.320000
6.726743 17.541408 1.748395 0.984252 80.516017 20.649817 -10.449794 1.098281 -2.528628 -8.058515 6.836904 -10.806095 -2.218082 0.009819 12.098031 0.369688 2.121032 -0.542770 0.348500 0.000000 -49.174200 9.420452 0.765902 -0.263306 4.203800 1.177225 -37.557291 1.876427 -1.628925 23.415843 -0.711625 -2.719191 1.535109 -0.905200 -0.000000 -33.179900
6.888541 17.520052 1.787364 1.417673 80.421712 21.217261 -10.456420 1.166029 -2.604127 -8.043744 7.157180 -10.258520 -2.234681 0.007935 11.916457 0.350085 1.993638 -0.397719 0.340400 -0.000000 -49.890300 9.372391 0.802202 0.037076 3.929695 1.463702 -37.710780 2.027151 -1.307383 20.313916 -0.606166 -2.275479 1.917008 -0.871200 0.000000 -33.127899
7.051008 17.496485 1.828523 2.073400 80.337984 22.002302 -10.449871 1.237853 -2.678888 -8.067353 7.438948 -9.682056 -2.252666 0.004452 11.715161 0.332974 1.892484 -0.239122 0.335900 0.000000 -50.752001 9.340379 0.852090 0.331623 3.613226 1.688824 -37.849209 2.172566 -0.970689 17.216371 -0.490451 -1.770844 2.180772 -0.810000 -0.000000 -33.152900
7.214283 17.470677 1.872013 2.909197 80.274120 22.962102 -10.433874 1.313679 -2.752496 -8.114842 7.700446 -9.100757 -2.273305 0.001990 11.530727 0.315032 1.783434 -0.082231 0.330200 -0.000000 -51.766800 9.321980 0.916351 0.617308 3.272446 1.845780 -37.973174 2.310761 -0.620905 14.149959 -0.366303 -1.208176 2.313065 -0.723100 -0.000000 -33.258800
7.378233 17.442469 1.918132 3.939795 80.230777 24.094797 -10.406242 1.394068 -2.825256 -8.184409 7.931047 -8.485442 -2.295397 0.000875 11.351519 0.296817 1.672200 0.077829 0.324200 -0.000001 -52.936800 9.318819 0.998133 0.881851 2.915444 1.918329 -38.066791 2.438000 -0.265753 11.160339 -0.233339 -0.575963 2.316030 -0.610200 -0.000000 -33.420700
7.542965 17.411523 1.967025 5.143433 80.214102 25.371100 -10.369250 1.479314 -2.895134 -8.263319 8.133346 -7.841449 -2.318727 0.003221 11.200838 0.276959 1.541867 0.229364 0.315200 0.000000 -54.222100 9.330082 1.097139 1.115460 2.565730 1.888989 -38.127916 2.552783 0.085460 8.298244 -0.091455 0.130957 2.218160 -0.474400 -0.000000 -33.621900
7.708067 17.377622 2.019024 6.566286 80.211060 26.809880 -10.314027 1.570294 -2.960538 -8.364739 8.258184 -7.088600 -2.338649 0.006688 11.012830 0.261237 1.452183 0.400638 0.311600 0.000000 -55.596700 9.360802 1.216087 1.298962 2.225759 1.742498 -38.133121 2.650631 0.416449 5.635155 0.060991 0.930973 2.057045 -0.315600 0.000000 -33.850000
7.874204 17.340285 2.073859 8.099221 80.235705 28.317583 -10.253465 1.665528 -3.016978 -8.451539 8.341389 -6.305810 -2.357062 0.016530 10.878491 0.244290 1.339778 0.547867 0.303700 -0.000000 -56.958300 9.403252 1.345337 1.435057 1.939236 1.485238 -38.109412 2.735446 0.718363 3.219824 0.220140 1.794935 1.903813 -0.145001 0.000000 -34.150600
8.041456 17.299271 2.131396 9.700989 80.283450 29.854030 -10.190199 1.763680 -3.061361 -8.513730 8.370543 -5.495195 -2.371766 0.033317 10.802691 0.227742 1.216457 0.666242 0.292700 0.000000 -58.241900 9.454672 1.477672 1.523306 1.714638 1.142669 -38.063749 2.806796 0.979400 1.106631 0.380597 2.687968 1.823922 0.029500 0.000000 -34.563700
8.210070 17.254566 2.191264 11.307091 80.349653 31.367937 -10.129443 1.862579 -3.090097 -8.539849 8.335500 -4.679330 -2.380821 0.057797 10.801230 0.213129 1.091978 0.744876 0.279199 0.000000 -59.390300 9.510137 1.603544 1.570926 1.550382 0.761240 -38.011685 2.864102 1.190910 -0.663388 0.533593 3.549496 1.881632 0.199100 -0.000000 -35.149299
8.380292 17.206322 2.252974 12.844191 80.429376 32.807272 -10.077784 1.959781 -3.099994 -8.519851 8.231917 -3.895807 -2.382768 0.090544 10.897165 0.201675 0.973672 0.770969 0.263900 -0.000001 -60.367900 9.563900 1.711682 1.593008 1.430499 0.407242 -37.974324 2.905239 1.347480 -2.062152 0.667717 4.297217 2.129951 0.354300 0.000000 -35.945300
